<?xml version="1.0" standalone="no"?><svg xmlns="http://www.w3.org/2000/svg" viewBox="0 0 1440 320"><path fill="#fff9ea8a" fill-opacity="1" d="M0,128L20,133.3C40,139,80,149,120,133.3C160,117,200,75,240,69.3C280,64,320,96,360,117.3C400,139,440,149,480,160C520,171,560,181,600,165.3C640,149,680,107,720,106.7C760,107,800,149,840,160C880,171,920,149,960,133.3C1000,117,1040,107,1080,90.7C1120,75,1160,53,1200,64C1240,75,1280,117,1320,117.3C1360,117,1400,75,1420,53.3L1440,32L1440,320L1420,320C1400,320,1360,320,1320,320C1280,320,1240,320,1200,320C1160,320,1120,320,1080,320C1040,320,1000,320,960,320C920,320,880,320,840,320C800,320,760,320,720,320C680,320,640,320,600,320C560,320,520,320,480,320C440,320,400,320,360,320C320,320,280,320,240,320C200,320,160,320,120,320C80,320,40,320,20,320L0,320Z"></path></svg>